{
	"asset":{
		"version":"2.0",
		"generator":"Created using the official Cinema 4D glTF Exporter 1.000x284978"
	},
	"scenes":[{
		"nodes":[0]
	}],
	"nodes":[{
		"name":"Cylinder",
		"translation":[-0.022942813113331796,
		0.0,
		0.0077958544716238979],
		"children":[1,
		2],
		"rotation":[0.0,
		0.0,
		0.0,
		-1.0],
		"scale":[1.0,
		1.0,
		1.0]
	},
	{
		"name":"Cylinder-Plastic",
		"translation":[0.0,
		0.0,
		0.0],
		"rotation":[0.0,
		0.0,
		0.0,
		-1.0],
		"scale":[1.0,
		1.0,
		1.0],
		"mesh":0
	},
	{
		"name":"Cylinder-PBR",
		"translation":[0.0,
		0.0,
		0.0],
		"rotation":[0.0,
		0.0,
		0.0,
		-1.0],
		"scale":[1.0,
		1.0,
		1.0],
		"mesh":1
	}],
	"meshes":[{
		"name":"Cylinder-Plastic",
		"primitives":[{
			"indices":0,
			"attributes":{
				"POSITION":1,
				"TEXCOORD_0":2
			},
			"material":0
		}]
	},
	{
		"name":"Cylinder-PBR",
		"primitives":[{
			"indices":3,
			"attributes":{
				"POSITION":4,
				"TEXCOORD_0":5
			},
			"material":1
		}]
	}],
	"accessors":[{
		"bufferView":0,
		"type":"SCALAR",
		"componentType":5123,
		"count":264600,
		"byteOffset":0,
		"min":[0],
		"max":[46340]
	},
	{
		"bufferView":1,
		"type":"VEC3",
		"componentType":5126,
		"count":46341,
		"byteOffset":0,
		"min":[-249.97705078125,
		-50.0,
		-249.97605895996095],
		"max":[250.02294921875,
		50.0,
		250.02394104003907]
	},
	{
		"bufferView":1,
		"type":"VEC2",
		"componentType":5126,
		"count":46341,
		"byteOffset":12,
		"min":[0.0,
		0.0],
		"max":[1.0,
		1.0]
	},
	{
		"bufferView":2,
		"type":"SCALAR",
		"componentType":5123,
		"count":3840,
		"byteOffset":0,
		"min":[0],
		"max":[951]
	},
	{
		"bufferView":3,
		"type":"VEC3",
		"componentType":5126,
		"count":952,
		"byteOffset":0,
		"min":[-201.4713592529297,
		-0.5,
		-215.73605346679688],
		"max":[216.73814392089845,
		0.5,
		223.86375427246095]
	},
	{
		"bufferView":3,
		"type":"VEC2",
		"componentType":5126,
		"count":952,
		"byteOffset":12,
		"min":[0.0,
		0.0],
		"max":[1.0,
		1.0]
	}],
	"bufferViews":[{
		"buffer":0,
		"byteOffset":0,
		"byteLength":529200,
		"target":34963
	},
	{
		"buffer":0,
		"byteOffset":529200,
		"byteLength":926820,
		"target":34962,
		"byteStride":20
	},
	{
		"buffer":1,
		"byteOffset":0,
		"byteLength":7680,
		"target":34963
	},
	{
		"buffer":1,
		"byteOffset":7680,
		"byteLength":19040,
		"target":34962,
		"byteStride":20
	}],
	"materials":[{
		"pbrMetallicRoughness":{
			"baseColorFactor":[0.8,
			0.8,
			0.8,
			1.0],
			"metallicFactor":1.0,
			"roughnessFactor":0.59
		},
		"emissiveFactor":[0.0,
		0.0,
		0.0],
		"alphaMode":"OPAQUE",
		"doubleSided":false,
		"name":"Plastic"
	},
	{
		"pbrMetallicRoughness":{
			"baseColorFactor":[0.9686274509803922,
			0.3568627450980392,
			0.2980392156862745,
			1.0],
			"metallicFactor":1.0,
			"roughnessFactor":0.08
		},
		"emissiveFactor":[0.0,
		0.0,
		0.0],
		"alphaMode":"OPAQUE",
		"doubleSided":false,
		"name":"PBR"
	}],
	"buffers":[{
		"uri":"data:application/octet-stream;base64,",
		"byteLength":1456020
	},
	{
		"uri":"data:application/octet-stream;base64,",
		"byteLength":26720
	}]
}