{
	"asset":{
		"version":"2.0",
		"generator":"Created using the official Cinema 4D glTF Exporter 1.000x284978"
	},
	"scenes":[{
		"nodes":[0,
		1]
	}],
	"nodes":[{
		"name":"Cylinder.7",
		"translation":[-0.04588562622666359,
		0.0,
		-0.016143564134836198],
		"rotation":[0.0,
		0.0,
		0.0,
		-1.0],
		"scale":[1.0,
		1.0,
		1.0],
		"mesh":0
	},
	{
		"name":"Cloner.2",
		"translation":[0.0,
		0.0,
		0.03173527494072914],
		"rotation":[0.0,
		0.0,
		0.0,
		-1.0],
		"scale":[1.0,
		1.0,
		1.0],
		"mesh":1
	}],
	"meshes":[{
		"name":"Cylinder.7",
		"primitives":[{
			"indices":0,
			"attributes":{
				"POSITION":1,
				"TEXCOORD_0":2
			},
			"material":0
		}]
	},
	{
		"name":"Cloner.2",
		"primitives":[{
			"indices":3,
			"attributes":{
				"POSITION":4,
				"TEXCOORD_0":5
			},
			"material":1
		}]
	}],
	"accessors":[{
		"bufferView":0,
		"type":"SCALAR",
		"componentType":5123,
		"count":3840,
		"byteOffset":0,
		"min":[0],
		"max":[951]
	},
	{
		"bufferView":1,
		"type":"VEC3",
		"componentType":5126,
		"count":952,
		"byteOffset":0,
		"min":[-201.4484100341797,
		-0.5,
		-215.71212768554688],
		"max":[216.76109313964845,
		0.5,
		223.8876953125]
	},
	{
		"bufferView":1,
		"type":"VEC2",
		"componentType":5126,
		"count":952,
		"byteOffset":12,
		"min":[0.0,
		0.0],
		"max":[1.0,
		1.0]
	},
	{
		"bufferView":2,
		"type":"SCALAR",
		"componentType":5123,
		"count":264600,
		"byteOffset":0,
		"min":[0],
		"max":[46340]
	},
	{
		"bufferView":3,
		"type":"VEC3",
		"componentType":5126,
		"count":46341,
		"byteOffset":0,
		"min":[-250.0,
		-50.0,
		-250.0],
		"max":[250.0,
		50.0,
		250.0]
	},
	{
		"bufferView":3,
		"type":"VEC2",
		"componentType":5126,
		"count":46341,
		"byteOffset":12,
		"min":[0.0,
		0.0],
		"max":[1.0,
		1.0]
	}],
	"bufferViews":[{
		"buffer":0,
		"byteOffset":0,
		"byteLength":7680,
		"target":34963
	},
	{
		"buffer":0,
		"byteOffset":7680,
		"byteLength":19040,
		"target":34962,
		"byteStride":20
	},
	{
		"buffer":1,
		"byteOffset":0,
		"byteLength":529200,
		"target":34963
	},
	{
		"buffer":1,
		"byteOffset":529200,
		"byteLength":926820,
		"target":34962,
		"byteStride":20
	}],
	"materials":[{
		"pbrMetallicRoughness":{
			"baseColorFactor":[0.9686274509803922,
			0.3568627450980392,
			0.2980392156862745,
			1.0],
			"metallicFactor":1.0,
			"roughnessFactor":0.08
		},
		"emissiveFactor":[0.0,
		0.0,
		0.0],
		"alphaMode":"OPAQUE",
		"doubleSided":false,
		"name":"PBR"
	},
	{
		"pbrMetallicRoughness":{
			"baseColorFactor":[0.8,
			0.8,
			0.8,
			1.0],
			"metallicFactor":1.0,
			"roughnessFactor":0.59
		},
		"emissiveFactor":[0.0,
		0.0,
		0.0],
		"alphaMode":"OPAQUE",
		"doubleSided":false,
		"name":"Plastic"
	}],
	"buffers":[{
		"uri":"data:application/octet-stream;base64,",
		"byteLength":26720
	},
	{
		"uri":"data:application/octet-stream;base64,",
		"byteLength":1456020
	}]
}