{
	"asset":{
		"version":"2.0",
		"generator":"Created using the official Cinema 4D glTF Exporter 1.000x284978"
	},
	"scenes":[{
		"nodes":[0,
		1]
	}],
	"nodes":[{
		"name":"Cylinder.7",
		"translation":[7.524553298950195,
		0.0,
		-47.37673568725586],
		"rotation":[0.0,
		0.0,
		0.0,
		-1.0],
		"scale":[1.0,
		1.0,
		1.0],
		"mesh":0
	},
	{
		"name":"Cloner.2",
		"translation":[0.0,
		0.0,
		-1.1092461347579957],
		"rotation":[0.0,
		0.0,
		0.0,
		-1.0],
		"scale":[1.0,
		1.0,
		1.0],
		"mesh":1
	}],
	"meshes":[{
		"name":"Cylinder.7",
		"primitives":[{
			"indices":0,
			"attributes":{
				"POSITION":1,
				"NORMAL":2,
				"TEXCOORD_0":3
			},
			"material":0
		}]
	},
	{
		"name":"Cloner.2",
		"primitives":[{
			"indices":4,
			"attributes":{
				"POSITION":5,
				"NORMAL":6,
				"TEXCOORD_0":7
			},
			"material":1
		}]
	}],
	"accessors":[{
		"bufferView":0,
		"type":"SCALAR",
		"componentType":5123,
		"count":3840,
		"byteOffset":0,
		"min":[0],
		"max":[951]
	},
	{
		"bufferView":1,
		"type":"VEC3",
		"componentType":5126,
		"count":952,
		"byteOffset":0,
		"min":[-209.1942596435547,
		-0.5,
		-176.83676147460938],
		"max":[209.01524353027345,
		0.5,
		262.7630615234375]
	},
	{
		"bufferView":1,
		"type":"VEC3",
		"componentType":5126,
		"count":952,
		"byteOffset":12,
		"min":[-1.0,
		-1.0,
		-1.0],
		"max":[1.0,
		1.0,
		1.0]
	},
	{
		"bufferView":1,
		"type":"VEC2",
		"componentType":5126,
		"count":952,
		"byteOffset":24,
		"min":[0.0,
		0.0],
		"max":[1.0,
		1.0]
	},
	{
		"bufferView":2,
		"type":"SCALAR",
		"componentType":5123,
		"count":264600,
		"byteOffset":0,
		"min":[0],
		"max":[46340]
	},
	{
		"bufferView":3,
		"type":"VEC3",
		"componentType":5126,
		"count":46341,
		"byteOffset":0,
		"min":[-250.0,
		-50.0,
		-250.0],
		"max":[250.0,
		50.0,
		250.0]
	},
	{
		"bufferView":3,
		"type":"VEC3",
		"componentType":5126,
		"count":46341,
		"byteOffset":12,
		"min":[-1.0,
		-1.0,
		-1.0],
		"max":[1.0,
		1.0,
		1.0]
	},
	{
		"bufferView":3,
		"type":"VEC2",
		"componentType":5126,
		"count":46341,
		"byteOffset":24,
		"min":[0.0,
		0.0],
		"max":[1.0,
		1.0]
	}],
	"bufferViews":[{
		"buffer":0,
		"byteOffset":0,
		"byteLength":7680,
		"target":34963
	},
	{
		"buffer":0,
		"byteOffset":7680,
		"byteLength":30464,
		"target":34962,
		"byteStride":32
	},
	{
		"buffer":1,
		"byteOffset":0,
		"byteLength":529200,
		"target":34963
	},
	{
		"buffer":1,
		"byteOffset":529200,
		"byteLength":1482912,
		"target":34962,
		"byteStride":32
	}],
	"materials":[{
		"pbrMetallicRoughness":{
			"baseColorFactor":[0.9686274509803922,
			0.3568627450980392,
			0.2980392156862745,
			1.0],
			"metallicFactor":1.0,
			"roughnessFactor":0.08
		},
		"emissiveFactor":[0.0,
		0.0,
		0.0],
		"alphaMode":"OPAQUE",
		"doubleSided":false,
		"name":"PBR"
	},
	{
		"pbrMetallicRoughness":{
			"baseColorFactor":[0.8,
			0.8,
			0.8,
			1.0],
			"metallicFactor":1.0,
			"roughnessFactor":0.59
		},
		"emissiveFactor":[0.0,
		0.0,
		0.0],
		"alphaMode":"OPAQUE",
		"doubleSided":false,
		"name":"Plastic"
	}],
	"buffers":[{
		"uri":"data:application/octet-stream;base64,",
		"byteLength":38144
	},
	{
		"uri":"data:application/octet-stream;base64,",
		"byteLength":2012112
	}]
}