{
	"nodes":[{
		"rotation":[0.0,
		0.0,
		0.0,
		-1.0],
		"name":"линза",
		"translation":[0.0,
		-2.924267053604126,
		0.0],
		"scale":[1.0,
		1.0,
		1.0],
		"children":[1,
		4,
		7]
	},
	{
		"rotation":[0.0,
		0.0,
		0.0,
		-1.0],
		"name":"нар",
		"translation":[0.0,
		-3.8677961826324465,
		0.0],
		"scale":[1.0,
		1.0,
		1.0],
		"children":[2]
	},
	{
		"rotation":[0.0,
		0.0,
		0.0,
		-1.0],
		"name":"Boole",
		"translation":[0.0,
		0.496775358915329,
		0.0],
		"scale":[1.0,
		1.0,
		1.0],
		"children":[3]
	},
	{
		"name":"Boole",
		"mesh":0
	},
	{
		"rotation":[0.0,
		0.0,
		0.0,
		-1.0],
		"name":"внутр",
		"translation":[0.0,
		-1.4170643091201783,
		0.0],
		"scale":[1.0,
		1.0,
		1.0],
		"children":[5]
	},
	{
		"rotation":[0.0,
		0.0,
		0.0,
		-1.0],
		"name":"Boole",
		"translation":[0.0,
		0.0,
		0.0],
		"scale":[1.0,
		1.0,
		1.0],
		"children":[6]
	},
	{
		"name":"Boole",
		"mesh":1
	},
	{
		"rotation":[0.0,
		0.0,
		0.0,
		-1.0],
		"name":"линза",
		"translation":[0.0,
		0.0,
		0.0],
		"scale":[1.0,
		1.0,
		1.0],
		"children":[8,
		9]
	},
	{
		"rotation":[0.0,
		0.0,
		0.0,
		-1.0],
		"name":"Sphere",
		"translation":[0.0,
		0.0,
		0.0],
		"scale":[1.0,
		1.0,
		1.0],
		"mesh":2
	},
	{
		"rotation":[0.0,
		0.0,
		0.0,
		-1.0],
		"name":"Cube",
		"translation":[0.0,
		-33.406646728515628,
		0.0],
		"scale":[1.0,
		1.0,
		1.0],
		"mesh":3
	},
	{
		"rotation":[-0.31101763248443606,
		-0.903444230556488,
		-0.23383721709251405,
		0.17993535101413728],
		"name":"Camera",
		"translation":[-46.42060089111328,
		185.1613311767578,
		-182.09652709960938],
		"scale":[1.0,
		1.0,
		1.0],
		"camera":0
	}],
	"asset":{
		"version":"2.0",
		"generator":"Created using the official Cinema 4D glTF Exporter 1.000x284978"
	},
	"scenes":[{
		"nodes":[0,
		10]
	}],
	"meshes":[{
		"name":"Boole",
		"primitives":[{
			"attributes":{
				"POSITION":1,
				"NORMAL":2,
				"TEXCOORD_0":3
			},
			"indices":0,
			"material":0
		}]
	},
	{
		"name":"Boole",
		"primitives":[{
			"attributes":{
				"POSITION":5,
				"NORMAL":6,
				"TEXCOORD_0":7
			},
			"indices":4,
			"material":1
		}]
	},
	{
		"name":"Sphere",
		"primitives":[{
			"attributes":{
				"POSITION":9,
				"NORMAL":10,
				"TEXCOORD_0":11
			},
			"indices":8,
			"material":2
		}]
	},
	{
		"name":"Cube",
		"primitives":[{
			"attributes":{
				"POSITION":13,
				"NORMAL":14,
				"TEXCOORD_0":15
			},
			"indices":12,
			"material":2
		}]
	}],
	"cameras":[{
		"type":"perspective",
		"perspective":{
			"znear":0.009999999776482582,
			"zfar":10000000000.0,
			"aspectRatio":0.5625,
			"yfov":1.453284740447998
		}
	}],
	"accessors":[{
		"bufferView":0,
		"type":"SCALAR",
		"componentType":5123,
		"count":2340,
		"byteOffset":0,
		"min":[0],
		"max":[630]
	},
	{
		"bufferView":1,
		"type":"VEC3",
		"componentType":5126,
		"count":631,
		"byteOffset":0,
		"min":[-80.90864562988281,
		58.06850814819336,
		-80.90864562988281],
		"max":[80.90864562988281,
		99.50322723388672,
		80.90864562988281]
	},
	{
		"bufferView":1,
		"type":"VEC3",
		"componentType":5126,
		"count":631,
		"byteOffset":12,
		"min":[-0.7862927913665772,
		0.6160205006599426,
		-0.7862928509712219],
		"max":[0.7862927913665772,
		1.0,
		0.7862928509712219]
	},
	{
		"bufferView":1,
		"type":"VEC2",
		"componentType":5126,
		"count":631,
		"byteOffset":24,
		"min":[0.0,
		0.0],
		"max":[1.0,
		0.30138200521469118]
	},
	{
		"bufferView":2,
		"type":"SCALAR",
		"componentType":5123,
		"count":2028,
		"byteOffset":0,
		"min":[0],
		"max":[1403]
	},
	{
		"bufferView":3,
		"type":"VEC3",
		"componentType":5126,
		"count":1404,
		"byteOffset":0,
		"min":[-70.66854095458985,
		70.33305358886719,
		-70.66854095458985],
		"max":[70.66854095458985,
		99.9355239868164,
		70.66854095458985]
	},
	{
		"bufferView":3,
		"type":"VEC3",
		"componentType":5126,
		"count":1404,
		"byteOffset":12,
		"min":[-0.7064608335494995,
		0.7064605355262756,
		-0.7064608335494995],
		"max":[0.7064608335494995,
		0.9981689453125,
		0.7064608335494995]
	},
	{
		"bufferView":3,
		"type":"VEC2",
		"componentType":5126,
		"count":1404,
		"byteOffset":24,
		"min":[0.0,
		0.0],
		"max":[1.0,
		0.2637139558792114]
	},
	{
		"bufferView":4,
		"type":"SCALAR",
		"componentType":5123,
		"count":2550,
		"byteOffset":0,
		"min":[0],
		"max":[508]
	},
	{
		"bufferView":5,
		"type":"VEC3",
		"componentType":5126,
		"count":509,
		"byteOffset":0,
		"min":[-86.24832153320313,
		54.42355728149414,
		-86.078125],
		"max":[86.24832153320313,
		102.0,
		86.078125]
	},
	{
		"bufferView":5,
		"type":"VEC3",
		"componentType":5126,
		"count":509,
		"byteOffset":12,
		"min":[-0.8761498332023621,
		0.48166343569755556,
		-0.8745773434638977],
		"max":[0.8761498332023621,
		0.9999999403953552,
		0.8745773434638977]
	},
	{
		"bufferView":5,
		"type":"VEC2",
		"componentType":5126,
		"count":509,
		"byteOffset":24,
		"min":[0.0,
		0.0],
		"max":[1.0,
		0.3208223581314087]
	},
	{
		"bufferView":6,
		"type":"SCALAR",
		"componentType":5123,
		"count":144,
		"byteOffset":0,
		"min":[0],
		"max":[49]
	},
	{
		"bufferView":7,
		"type":"VEC3",
		"componentType":5126,
		"count":50,
		"byteOffset":0,
		"min":[-86.24832153320313,
		87.8302001953125,
		-86.078125],
		"max":[86.24832153320313,
		87.8302001953125,
		86.078125]
	},
	{
		"bufferView":7,
		"type":"VEC3",
		"componentType":5126,
		"count":50,
		"byteOffset":12,
		"min":[0.0,
		-1.0,
		0.0],
		"max":[0.0,
		-1.0,
		0.0]
	},
	{
		"bufferView":7,
		"type":"VEC2",
		"componentType":5126,
		"count":50,
		"byteOffset":24,
		"min":[0.12738612294197083,
		0.12245620787143707],
		"max":[0.872613787651062,
		0.8775438070297241]
	}],
	"bufferViews":[{
		"buffer":0,
		"byteOffset":0,
		"byteLength":4680,
		"target":34963
	},
	{
		"buffer":0,
		"byteOffset":4680,
		"byteLength":20192,
		"target":34962,
		"byteStride":32
	},
	{
		"buffer":1,
		"byteOffset":0,
		"byteLength":4056,
		"target":34963
	},
	{
		"buffer":1,
		"byteOffset":4056,
		"byteLength":44928,
		"target":34962,
		"byteStride":32
	},
	{
		"buffer":2,
		"byteOffset":0,
		"byteLength":5100,
		"target":34963
	},
	{
		"buffer":2,
		"byteOffset":5100,
		"byteLength":16288,
		"target":34962,
		"byteStride":32
	},
	{
		"buffer":3,
		"byteOffset":0,
		"byteLength":288,
		"target":34963
	},
	{
		"buffer":3,
		"byteOffset":288,
		"byteLength":1600,
		"target":34962,
		"byteStride":32
	}],
	"buffers":[{
		"uri":"data:application/octet-stream;base64,",
		"byteLength":24872
	},
	{
		"uri":"data:application/octet-stream;base64,",
		"byteLength":48984
	},
	{
		"uri":"data:application/octet-stream;base64,",
		"byteLength":21388
	},
	{
		"uri":"data:application/octet-stream;base64,",
		"byteLength":1888
	}],
	"materials":[{
		"pbrMetallicRoughness":{
			"baseColorFactor":[1.0,
			1.0,
			1.0,
			0.16000000000000004],
			"metallicFactor":1.0,
			"roughnessFactor":0.1
		},
		"emissiveFactor":[0.0,
		0.0,
		0.0],
		"alphaMode":"BLEND",
		"doubleSided":false,
		"name":"Mat.1"
	},
	{
		"pbrMetallicRoughness":{
			"baseColorFactor":[1.0,
			1.0,
			1.0,
			0.09999999999999998],
			"metallicFactor":0.0,
			"roughnessFactor":0.5
		},
		"emissiveFactor":[0.0,
		0.0,
		0.0],
		"alphaMode":"BLEND",
		"doubleSided":false,
		"name":"Mat"
	},
	{
		"pbrMetallicRoughness":{
			"baseColorFactor":[1.0,
			1.0,
			1.0,
			0.0],
			"metallicFactor":0.0,
			"roughnessFactor":0.5
		},
		"emissiveFactor":[0.0,
		0.0,
		0.0],
		"alphaMode":"BLEND",
		"doubleSided":false,
		"name":"Mat.2"
	}]
}