{
	"asset":{
		"version":"2.0",
		"generator":"Created using the official Cinema 4D glTF Exporter 1.000x284978"
	},
	"scenes":[{
		"nodes":[0,
		1,
		2,
		3,
		4]
	}],
	"accessors":[{
		"bufferView":0,
		"type":"SCALAR",
		"componentType":5123,
		"count":58944,
		"byteOffset":0,
		"min":[0],
		"max":[11128]
	},
	{
		"bufferView":1,
		"type":"VEC3",
		"componentType":5126,
		"count":11129,
		"byteOffset":0,
		"min":[-100.0,
		-100.0,
		-3.451266050338745],
		"max":[100.0,
		100.0,
		3.451266050338745]
	},
	{
		"bufferView":1,
		"type":"VEC3",
		"componentType":5126,
		"count":11129,
		"byteOffset":12,
		"min":[-1.0,
		-1.0,
		-1.0],
		"max":[1.0,
		1.0,
		1.0]
	},
	{
		"bufferView":1,
		"type":"VEC2",
		"componentType":5126,
		"count":11129,
		"byteOffset":24,
		"min":[0.0,
		0.0],
		"max":[1.0,
		1.0]
	},
	{
		"bufferView":2,
		"type":"SCALAR",
		"componentType":5123,
		"count":58944,
		"byteOffset":0,
		"min":[0],
		"max":[11128]
	},
	{
		"bufferView":3,
		"type":"VEC3",
		"componentType":5126,
		"count":11129,
		"byteOffset":0,
		"min":[-100.0,
		-100.0,
		-3.451266050338745],
		"max":[100.0,
		100.0,
		3.451266050338745]
	},
	{
		"bufferView":3,
		"type":"VEC3",
		"componentType":5126,
		"count":11129,
		"byteOffset":12,
		"min":[-1.0,
		-1.0,
		-1.0],
		"max":[1.0,
		1.0,
		1.0]
	},
	{
		"bufferView":3,
		"type":"VEC2",
		"componentType":5126,
		"count":11129,
		"byteOffset":24,
		"min":[0.0,
		0.0],
		"max":[1.0,
		1.0]
	},
	{
		"bufferView":4,
		"type":"SCALAR",
		"componentType":5123,
		"count":58944,
		"byteOffset":0,
		"min":[0],
		"max":[11128]
	},
	{
		"bufferView":5,
		"type":"VEC3",
		"componentType":5126,
		"count":11129,
		"byteOffset":0,
		"min":[-100.0,
		-100.0,
		-3.451266050338745],
		"max":[100.0,
		100.0,
		3.451266050338745]
	},
	{
		"bufferView":5,
		"type":"VEC3",
		"componentType":5126,
		"count":11129,
		"byteOffset":12,
		"min":[-1.0,
		-1.0,
		-1.0],
		"max":[1.0,
		1.0,
		1.0]
	},
	{
		"bufferView":5,
		"type":"VEC2",
		"componentType":5126,
		"count":11129,
		"byteOffset":24,
		"min":[0.0,
		0.0],
		"max":[1.0,
		1.0]
	},
	{
		"bufferView":6,
		"type":"SCALAR",
		"componentType":5123,
		"count":58944,
		"byteOffset":0,
		"min":[0],
		"max":[11128]
	},
	{
		"bufferView":7,
		"type":"VEC3",
		"componentType":5126,
		"count":11129,
		"byteOffset":0,
		"min":[-100.0,
		-100.0,
		-3.451266050338745],
		"max":[100.0,
		100.0,
		3.451266050338745]
	},
	{
		"bufferView":7,
		"type":"VEC3",
		"componentType":5126,
		"count":11129,
		"byteOffset":12,
		"min":[-1.0,
		-1.0,
		-1.0],
		"max":[1.0,
		1.0,
		1.0]
	},
	{
		"bufferView":7,
		"type":"VEC2",
		"componentType":5126,
		"count":11129,
		"byteOffset":24,
		"min":[0.0,
		0.0],
		"max":[1.0,
		1.0]
	},
	{
		"bufferView":8,
		"type":"SCALAR",
		"componentType":5123,
		"count":672,
		"byteOffset":0,
		"min":[0],
		"max":[150]
	},
	{
		"bufferView":9,
		"type":"VEC3",
		"componentType":5126,
		"count":151,
		"byteOffset":0,
		"min":[-50.0,
		-50.0,
		-50.0],
		"max":[50.0,
		50.0,
		50.0]
	},
	{
		"bufferView":9,
		"type":"VEC3",
		"componentType":5126,
		"count":151,
		"byteOffset":12,
		"min":[-0.9999999403953552,
		-1.0,
		-0.9999999403953552],
		"max":[0.9999999403953552,
		1.0,
		0.9999999403953552]
	},
	{
		"bufferView":9,
		"type":"VEC2",
		"componentType":5126,
		"count":151,
		"byteOffset":24,
		"min":[0.0,
		0.0],
		"max":[1.0,
		1.0]
	}],
	"nodes":[{
		"name":"Subdivision Surface.3",
		"translation":[0.0,
		0.0,
		-149.8871612548828],
		"rotation":[0.0,
		0.0,
		0.0,
		-1.0],
		"scale":[1.0,
		1.0,
		1.0],
		"mesh":0
	},
	{
		"name":"Subdivision Surface.2",
		"translation":[0.0,
		0.0,
		-100.28564453125],
		"rotation":[0.0,
		0.0,
		0.0,
		-1.0],
		"scale":[1.0,
		1.0,
		1.0],
		"mesh":1
	},
	{
		"name":"Subdivision Surface.1",
		"translation":[0.0,
		0.0,
		-49.62535095214844],
		"rotation":[0.0,
		0.0,
		0.0,
		-1.0],
		"scale":[1.0,
		1.0,
		1.0],
		"mesh":2
	},
	{
		"name":"Subdivision Surface",
		"translation":[0.0,
		0.0,
		0.0],
		"rotation":[0.0,
		0.0,
		0.0,
		-1.0],
		"scale":[1.0,
		1.0,
		1.0],
		"mesh":3
	},
	{
		"name":"Sphere",
		"translation":[0.0,
		0.0,
		-74.77420806884766],
		"rotation":[0.0,
		0.0,
		0.0,
		-1.0],
		"scale":[1.0,
		1.0,
		1.0],
		"mesh":4
	}],
	"meshes":[{
		"name":"Subdivision Surface.3",
		"primitives":[{
			"indices":0,
			"attributes":{
				"POSITION":1,
				"NORMAL":2,
				"TEXCOORD_0":3
			},
			"material":0
		}]
	},
	{
		"name":"Subdivision Surface.2",
		"primitives":[{
			"indices":4,
			"attributes":{
				"POSITION":5,
				"NORMAL":6,
				"TEXCOORD_0":7
			},
			"material":0
		}]
	},
	{
		"name":"Subdivision Surface.1",
		"primitives":[{
			"indices":8,
			"attributes":{
				"POSITION":9,
				"NORMAL":10,
				"TEXCOORD_0":11
			},
			"material":0
		}]
	},
	{
		"name":"Subdivision Surface",
		"primitives":[{
			"indices":12,
			"attributes":{
				"POSITION":13,
				"NORMAL":14,
				"TEXCOORD_0":15
			},
			"material":0
		}]
	},
	{
		"name":"Sphere",
		"primitives":[{
			"indices":16,
			"attributes":{
				"POSITION":17,
				"NORMAL":18,
				"TEXCOORD_0":19
			},
			"material":1
		}]
	}],
	"bufferViews":[{
		"buffer":0,
		"byteOffset":0,
		"byteLength":117888,
		"target":34963
	},
	{
		"buffer":0,
		"byteOffset":117888,
		"byteLength":356128,
		"target":34962,
		"byteStride":32
	},
	{
		"buffer":1,
		"byteOffset":0,
		"byteLength":117888,
		"target":34963
	},
	{
		"buffer":1,
		"byteOffset":117888,
		"byteLength":356128,
		"target":34962,
		"byteStride":32
	},
	{
		"buffer":2,
		"byteOffset":0,
		"byteLength":117888,
		"target":34963
	},
	{
		"buffer":2,
		"byteOffset":117888,
		"byteLength":356128,
		"target":34962,
		"byteStride":32
	},
	{
		"buffer":3,
		"byteOffset":0,
		"byteLength":117888,
		"target":34963
	},
	{
		"buffer":3,
		"byteOffset":117888,
		"byteLength":356128,
		"target":34962,
		"byteStride":32
	},
	{
		"buffer":4,
		"byteOffset":0,
		"byteLength":1344,
		"target":34963
	},
	{
		"buffer":4,
		"byteOffset":1344,
		"byteLength":4832,
		"target":34962,
		"byteStride":32
	}],
	"buffers":[{
		"uri":"data:application/octet-stream;base64,",
		"byteLength":474016
	},
	{
		"uri":"data:application/octet-stream;base64,",
		"byteLength":474016
	},
	{
		"uri":"data:application/octet-stream;base64,",
		"byteLength":474016
	},
	{
		"uri":"data:application/octet-stream;base64,",
		"byteLength":474016
	},
	{
		"uri":"data:application/octet-stream;base64,",
		"byteLength":6176
	}],
	"materials":[{
		"pbrMetallicRoughness":{
			"baseColorFactor":[0.9686274509803922,
			0.3568627450980392,
			0.2980392156862745,
			1.0],
			"metallicFactor":1.0,
			"roughnessFactor":0.3
		},
		"emissiveFactor":[0.0,
		0.0,
		0.0],
		"alphaMode":"OPAQUE",
		"doubleSided":false,
		"name":"PBR"
	},
	{
		"pbrMetallicRoughness":{
			"baseColorFactor":[0.8,
			0.8,
			0.8,
			1.0],
			"metallicFactor":1.0,
			"roughnessFactor":0.59
		},
		"emissiveFactor":[0.0,
		0.0,
		0.0],
		"alphaMode":"OPAQUE",
		"doubleSided":false,
		"name":"Plastic"
	}]
}