{
	"asset":{
		"version":"2.0",
		"generator":"Created using the official Cinema 4D glTF Exporter 1.000x284978"
	},
	"nodes":[{
		"name":"Sweep",
		"translation":[-0.6971738338470459,
		23.02066993713379,
		-52.00567626953125],
		"rotation":[0.02638140879571438,
		-1.010291348057515e-15,
		2.666218842962162e-17,
		0.9996519684791565],
		"scale":[1.0,
		1.0,
		1.0],
		"mesh":0
	}],
	"scenes":[{
		"nodes":[0]
	}],
	"meshes":[{
		"name":"Sweep",
		"primitives":[{
			"attributes":{
				"POSITION":1
			},
			"indices":0,
			"material":0
		}]
	}],
	"accessors":[{
		"bufferView":0,
		"type":"SCALAR",
		"componentType":5123,
		"count":194604,
		"byteOffset":0,
		"min":[0],
		"max":[32435]
	},
	{
		"bufferView":1,
		"type":"VEC3",
		"componentType":5126,
		"count":32436,
		"byteOffset":0,
		"min":[-62.74010467529297,
		-35.134193420410159,
		-43.377410888671878],
		"max":[40.287322998046878,
		65.83179473876953,
		56.56511688232422]
	},
	{
		"bufferView":2,
		"type":"SCALAR",
		"componentType":5126,
		"count":2,
		"byteOffset":0,
		"min":[0.0],
		"max":[1.600000023841858]
	},
	{
		"bufferView":2,
		"type":"VEC3",
		"componentType":5126,
		"count":2,
		"byteOffset":8,
		"min":[-11.676108360290528,
		36.09505081176758,
		-42.850894927978519],
		"max":[-11.676108360290528,
		36.09505081176758,
		-42.850894927978519]
	},
	{
		"bufferView":3,
		"type":"SCALAR",
		"componentType":5126,
		"count":3,
		"byteOffset":0,
		"min":[0.0],
		"max":[1.600000023841858]
	},
	{
		"bufferView":3,
		"type":"VEC4",
		"componentType":5126,
		"count":3,
		"byteOffset":12,
		"min":[0.30070579051971438,
		-8.470707990391308e-16,
		2.670803938184768e-16,
		-0.9458200335502625],
		"max":[0.9999203085899353,
		8.400569427193915e-16,
		8.881076395094703e-16,
		0.9537169337272644]
	},
	{
		"bufferView":4,
		"type":"SCALAR",
		"componentType":5126,
		"count":2,
		"byteOffset":0,
		"min":[0.0],
		"max":[1.600000023841858]
	},
	{
		"bufferView":4,
		"type":"VEC3",
		"componentType":5126,
		"count":2,
		"byteOffset":8,
		"min":[1.0,
		1.0,
		1.0],
		"max":[1.0,
		1.0,
		1.0]
	}],
	"bufferViews":[{
		"buffer":0,
		"byteOffset":0,
		"byteLength":389208,
		"target":34963
	},
	{
		"buffer":0,
		"byteOffset":389208,
		"byteLength":389232,
		"target":34962
	},
	{
		"buffer":1,
		"byteOffset":0,
		"byteLength":32
	},
	{
		"buffer":1,
		"byteOffset":32,
		"byteLength":60
	},
	{
		"buffer":1,
		"byteOffset":92,
		"byteLength":32
	}],
	"buffers":[{
		"uri":"data:application/octet-stream;base64,",
		"byteLength":778440
	},
	{
		"uri":"data:application/octet-stream;base64,",
		"byteLength":124
	}],
	"images":[{
		"uri":"data:image/jpeg;base64,"
	}],
	"samplers":[{
		"magFilter":9729,
		"minFilter":9729,
		"wrapS":10497,
		"wrapT":10497
	}],
	"textures":[{
		"sampler":0,
		"source":0
	}],
	"materials":[{
		"pbrMetallicRoughness":{
			"baseColorTexture":{
				"index":0
			},
			"baseColorFactor":[0.75,
			0.75,
			0.75,
			1.0],
			"metallicFactor":1.0,
			"roughnessFactor":0.34
		},
		"emissiveFactor":[0.0,
		0.0,
		0.0],
		"alphaMode":"OPAQUE",
		"doubleSided":false,
		"name":"Mat"
	}],
	"animations":[{
		"samplers":[{
			"output":3,
			"input":2,
			"interpolation":"LINEAR"
		},
		{
			"output":5,
			"input":4,
			"interpolation":"LINEAR"
		},
		{
			"output":7,
			"input":6,
			"interpolation":"LINEAR"
		}],
		"channels":[{
			"sampler":0,
			"target":{
				"node":0,
				"path":"translation"
			}
		},
		{
			"sampler":1,
			"target":{
				"node":0,
				"path":"rotation"
			}
		},
		{
			"sampler":2,
			"target":{
				"node":0,
				"path":"scale"
			}
		}]
	}]
}