{
	"asset":{
		"version":"2.0",
		"generator":"Created using the official Cinema 4D glTF Exporter 1.000x284978"
	},
	"nodes":[{
		"name":"Sweep",
		"translation":[0.0,
		95.3820571899414,
		0.0],
		"rotation":[0.30070579051971438,
		-9.638674839217566e-16,
		3.0390623646132119e-16,
		0.9537169337272644],
		"scale":[1.0,
		1.0,
		1.0],
		"children":[1]
	},
	{
		"name":"Sweep",
		"mesh":0
	}],
	"scenes":[{
		"nodes":[0]
	}],
	"meshes":[{
		"name":"Sweep",
		"primitives":[{
			"attributes":{
				"POSITION":1,
				"NORMAL":2,
				"TEXCOORD_0":3
			},
			"indices":0,
			"material":0
		}]
	}],
	"accessors":[{
		"bufferView":0,
		"type":"SCALAR",
		"componentType":5123,
		"count":194604,
		"byteOffset":0,
		"min":[0],
		"max":[33408]
	},
	{
		"bufferView":1,
		"type":"VEC3",
		"componentType":5126,
		"count":33409,
		"byteOffset":0,
		"min":[-121.11295318603516,
		-113.53591918945313,
		-123.06056213378906],
		"max":[115.46913146972656,
		114.46317291259766,
		119.65878295898438]
	},
	{
		"bufferView":1,
		"type":"VEC3",
		"componentType":5126,
		"count":33409,
		"byteOffset":12,
		"min":[-0.998769998550415,
		-0.9999682307243347,
		-0.9999952912330627],
		"max":[0.9992708563804627,
		0.9999500513076782,
		0.9999750256538391]
	},
	{
		"bufferView":1,
		"type":"VEC2",
		"componentType":5126,
		"count":33409,
		"byteOffset":24,
		"min":[0.0,
		0.0],
		"max":[1.0,
		1.0]
	}],
	"bufferViews":[{
		"buffer":0,
		"byteOffset":0,
		"byteLength":389208,
		"target":34963
	},
	{
		"buffer":0,
		"byteOffset":389208,
		"byteLength":1069088,
		"target":34962,
		"byteStride":32
	}],
	"buffers":[{
		"uri":"data:application/octet-stream;base64,",
		"byteLength":1458296
	}],
	"materials":[{
		"pbrMetallicRoughness":{
			"baseColorFactor":[0.11764705882352941,
			0.1764705882352941,
			0.1764705882352941,
			1.0],
			"metallicFactor":1.0,
			"roughnessFactor":0.74
		},
		"emissiveFactor":[0.0,
		0.0,
		0.0],
		"alphaMode":"OPAQUE",
		"doubleSided":false,
		"name":"Mat"
	}]
}